<svg width="48" height="48" viewBox="0 0 48 48" fill="none" xmlns="http://www.w3.org/2000/svg">
<mask id="path-1-inside-1_5610_46910" fill="white">
<path d="M0 24C0 10.7452 10.7452 0 24 0C37.2548 0 48 10.7452 48 24C48 37.2548 37.2548 48 24 48C10.7452 48 0 37.2548 0 24Z"/>
</mask>
<path d="M24 48V46C11.8497 46 2 36.1503 2 24H0H-2C-2 38.3594 9.6406 50 24 50V48ZM48 24H46C46 36.1503 36.1503 46 24 46V48V50C38.3594 50 50 38.3594 50 24H48ZM24 0V2C36.1503 2 46 11.8497 46 24H48H50C50 9.6406 38.3594 -2 24 -2V0ZM24 0V-2C9.6406 -2 -2 9.6406 -2 24H0H2C2 11.8497 11.8497 2 24 2V0Z" fill="#CCCBCE" mask="url(#path-1-inside-1_5610_46910)"/>
<path d="M23 28V19.85L20.4 22.45L19 21L24 16L29 21L27.6 22.45L25 19.85V28H23ZM18 32C17.45 32 16.9792 31.8042 16.5875 31.4125C16.1958 31.0208 16 30.55 16 30V27H18V30H30V27H32V30C32 30.55 31.8042 31.0208 31.4125 31.4125C31.0208 31.8042 30.55 32 30 32H18Z" fill="#A100FF"/>
</svg>
